<svg width="1920" height="1080" viewBox="0 0 1920 1080" xmlns="http://www.w3.org/2000/svg"><path d="M1920,1080C1641.5,1126.1666666666667,281.6666666666667,1116.6666666666667,0,1080C-281.6666666666667,1043.3333333333333,151.66666666666669,880.8333333333334,230,860C308.3333333333333,839.1666666666666,389,949.6666666666666,470,955C551,960.3333333333334,634.8333333333334,877,716,892C797.1666666666666,907,877,1052.3333333333333,957,1045C1037,1037.6666666666667,1116.1666666666667,919.6666666666666,1196,848C1275.8333333333333,776.3333333333334,1356.8333333333333,622.5,1436,615C1515.1666666666667,607.5,1590.3333333333333,725.5,1671,803C1751.6666666666667,880.5,2198.5,1033.8333333333333,1920,1080C1641.5,1126.1666666666667,281.6666666666667,1116.6666666666667,0,1080" fill="#1e56a0"/></svg>