<svg width="1920" height="1080" viewBox="0 0 1920 1080" xmlns="http://www.w3.org/2000/svg"><path d="M1920,1080C1641.3333333333333,1091,282,1098.3333333333333,0,1080C-282,1061.6666666666667,148.66666666666669,1022.8333333333334,228,970C307.3333333333333,917.1666666666666,394.8333333333333,765.3333333333334,476,763C557.1666666666666,760.6666666666666,635.3333333333334,953.1666666666666,715,956C794.6666666666666,958.8333333333334,874.6666666666666,784,954,780C1033.3333333333333,776,1110.5,921.5,1191,932C1271.5,942.5,1356.8333333333333,829.3333333333334,1437,843C1517.1666666666667,856.6666666666666,1591.5,974.5,1672,1014C1752.5,1053.5,2198.6666666666665,1069,1920,1080C1641.3333333333333,1091,282,1098.3333333333333,0,1080" fill="#f6f6f6"/></svg>