<svg width="1920" height="1080" viewBox="0 0 1920 1080" xmlns="http://www.w3.org/2000/svg"><path d="M1920,1080C1642,1115.1666666666667,281.3333333333333,1114.3333333333333,0,1080C-281.3333333333333,1045.6666666666667,153.33333333333331,878.5,232,874C310.6666666666667,869.5,392.3333333333333,1066.5,472,1053C551.6666666666666,1039.5,630.1666666666666,847.1666666666666,710,793C789.8333333333334,738.8333333333334,869.6666666666666,737.3333333333334,951,728C1032.3333333333333,718.6666666666666,1117,678.6666666666666,1198,737C1279,795.3333333333334,1358.6666666666667,1056,1437,1078C1515.3333333333333,1100,1587.5,868.6666666666666,1668,869C1748.5,869.3333333333334,2198,1044.8333333333333,1920,1080C1642,1115.1666666666667,281.3333333333333,1114.3333333333333,0,1080" fill="#163172"/></svg>