<svg width="1920" height="1080" viewBox="0 0 1920 1080" xmlns="http://www.w3.org/2000/svg"><path d="M1920,1080C1641.8333333333333,1114.8333333333333,281,1105.5,0,1080C-281,1054.5,155.83333333333331,974,234,927C312.1666666666667,880,389.3333333333333,822.3333333333334,469,798C548.6666666666666,773.6666666666666,631.5,770.3333333333334,712,781C792.5,791.6666666666666,871.3333333333334,835.1666666666666,952,862C1032.6666666666667,888.8333333333334,1114.8333333333333,951.1666666666666,1196,942C1277.1666666666667,932.8333333333334,1360.1666666666667,818.8333333333334,1439,807C1517.8333333333333,795.1666666666666,1588.8333333333333,825.5,1669,871C1749.1666666666667,916.5,2198.1666666666665,1045.1666666666667,1920,1080C1641.8333333333333,1114.8333333333333,281,1105.5,0,1080" fill="#d6e4f0"/></svg>